<?xml version="1.0" encoding="utf-8"?>
<!-- Generator: Adobe Illustrator 12.0.0, SVG Export Plug-In . SVG Version: 6.00 Build 51448)  -->
<!DOCTYPE svg PUBLIC "-//W3C//DTD SVG 1.1//EN" "http://www.w3.org/Graphics/SVG/1.1/DTD/svg11.dtd" [
	<!ENTITY ns_svg "http://www.w3.org/2000/svg">
	<!ENTITY ns_xlink "http://www.w3.org/1999/xlink">
]>
<svg  version="1.1" id="レイヤー_1" xmlns="&ns_svg;" xmlns:xlink="&ns_xlink;" width="493.275" height="137.581"
	 viewBox="0 0 493.275 137.581" overflow="visible" enable-background="new 0 0 493.275 137.581" xml:space="preserve">
<polygon fill-rule="evenodd" clip-rule="evenodd" fill="#CCCCCC" points="0,137.28 0,9.84 65.04,137.28 "/>
<polygon fill-rule="evenodd" clip-rule="evenodd" fill="#CB1C14" points="19.92,0 141.84,77.76 141.84,0 "/>
<polygon fill-rule="evenodd" clip-rule="evenodd" points="219.6,137.28 77.28,49.2 77.28,137.28 "/>
<g>
	<polygon fill-rule="evenodd" clip-rule="evenodd" points="8.19,4.09 76.81,137.581 122.69,77.6 	"/>
</g>
<g>
	<g>
		<path d="M289.977,89.831h-19.125l-20.719-26.766h-9.843v26.766h-15.469V19.19h27.046c9.813,0,16.883,1.742,21.211,5.227
			s6.492,8.211,6.492,14.18c0,9.344-4.703,16.266-14.109,20.766L289.977,89.831z M240.196,30.299v21.984h6.937
			c6.656,0,11.063-1.109,13.219-3.328s3.234-5.125,3.234-8.719c0-3.188-1.031-5.641-3.094-7.359s-6.125-2.578-12.188-2.578H240.196z
			"/>
		<path d="M361.948,89.831h-19.125l-20.719-26.766h-9.844v26.766h-15.469V19.19h27.047c9.813,0,16.883,1.742,21.211,5.227
			s6.492,8.211,6.492,14.18c0,9.344-4.703,16.266-14.109,20.766L361.948,89.831z M312.167,30.299v21.984h6.938
			c6.656,0,11.063-1.109,13.219-3.328s3.234-5.125,3.234-8.719c0-3.188-1.031-5.641-3.094-7.359s-6.125-2.578-12.188-2.578H312.167z
			"/>
		<path d="M364.825,85.549V70.596h1.594c3.5,2.875,7.523,5.156,12.07,6.844s8.914,2.531,13.102,2.531
			c4.344,0,7.844-0.781,10.5-2.344s3.984-3.734,3.984-6.516c0-2.156-0.633-3.875-1.898-5.156s-3.664-2.344-7.195-3.188
			c-2.531-0.469-6.852-1.391-12.961-2.766s-10.766-3.789-13.969-7.242s-4.805-7.867-4.805-13.242c0-6.406,2.734-11.617,8.203-15.633
			s12.5-6.023,21.094-6.023c8.75,0,16.969,1.594,24.656,4.781V36.94h-1.547c-6.563-5.313-14.094-7.969-22.594-7.969
			c-4.031,0-7.352,0.75-9.961,2.25s-3.914,3.547-3.914,6.141c0,2.219,0.742,3.984,2.227,5.297s4.023,2.391,7.617,3.234
			c3.594,0.656,7.602,1.523,12.023,2.602s7.719,2.289,9.891,3.633s3.906,2.805,5.203,4.383s2.266,3.336,2.906,5.273
			s0.961,4.078,0.961,6.422c0,6.875-2.805,12.406-8.414,16.594s-13.039,6.281-22.289,6.281
			C382.31,91.081,373.481,89.237,364.825,85.549z"/>
		<path d="M485.971,30.909h-23.203v58.922h-15.469V30.909h-23.203V19.19h61.875V30.909z"/>
	</g>
</g>
<g>
	<g>
		<path fill="#CB1C14" d="M230.871,115.32h-2.007l-2.175-2.81h-1.033v2.81h-1.624v-7.416h2.839c1.03,0,1.772,0.184,2.227,0.549
			c0.455,0.366,0.682,0.862,0.682,1.488c0,0.981-0.494,1.708-1.481,2.181L230.871,115.32z M225.646,109.07v2.309h0.728
			c0.699,0,1.162-0.117,1.388-0.35s0.339-0.538,0.339-0.915c0-0.335-0.108-0.593-0.325-0.772c-0.216-0.181-0.643-0.271-1.279-0.271
			H225.646z"/>
	</g>
</g>
<g>
	<g>
		<path d="M232.938,108.908h-1.619v-1.334h1.619V108.908z M232.884,115.32h-1.511v-5.698h1.511V115.32z"/>
		<path d="M237.84,115.286c-0.404,0.099-0.835,0.147-1.294,0.147c-0.679,0-1.176-0.146-1.491-0.436
			c-0.314-0.29-0.472-0.76-0.472-1.41v-2.967h-0.748v-0.999h0.753v-1.6h1.506v1.6h1.747v0.999h-1.747v2.347
			c0,0.604,0.077,0.998,0.231,1.182c0.154,0.184,0.413,0.275,0.777,0.275c0.233,0,0.464-0.058,0.694-0.173h0.044V115.286z"/>
		<path d="M238.382,115.049v-1.397h0.059c0.679,0.548,1.395,0.821,2.146,0.821c0.761,0,1.142-0.206,1.142-0.62
			c0-0.167-0.059-0.294-0.177-0.381s-0.332-0.165-0.64-0.234c-0.214-0.039-0.517-0.103-0.911-0.191
			c-0.394-0.089-0.703-0.212-0.928-0.369s-0.391-0.348-0.5-0.57c-0.108-0.224-0.162-0.481-0.162-0.773
			c0-0.554,0.241-1.004,0.723-1.351c0.482-0.346,1.13-0.519,1.944-0.519c0.719,0,1.366,0.126,1.944,0.379v1.328h-0.04
			c-0.659-0.469-1.298-0.703-1.914-0.703c-0.318,0-0.584,0.059-0.797,0.177s-0.32,0.266-0.32,0.442c0,0.2,0.066,0.346,0.199,0.436
			c0.133,0.091,0.355,0.172,0.667,0.244c0.397,0.072,0.792,0.159,1.186,0.261c0.395,0.102,0.704,0.281,0.931,0.539
			c0.226,0.257,0.339,0.589,0.339,0.996c0,0.581-0.245,1.045-0.735,1.393s-1.152,0.521-1.985,0.521
			C239.726,115.477,239.002,115.334,238.382,115.049z"/>
		<path d="M249.603,115.32h-1.511v-0.797c-0.459,0.374-0.833,0.626-1.122,0.758c-0.288,0.131-0.589,0.196-0.9,0.196
			c-1.2,0-1.801-0.703-1.801-2.11v-3.745h1.521v2.839c0,0.794,0.087,1.288,0.261,1.481s0.458,0.29,0.852,0.29
			c0.338,0,0.734-0.147,1.19-0.442v-4.168h1.511V115.32z"/>
		<path d="M260.083,115.32h-1.521v-2.859c0-0.38-0.018-0.714-0.052-1.001s-0.134-0.483-0.3-0.588
			c-0.166-0.105-0.395-0.158-0.687-0.158c-0.259,0-0.625,0.145-1.098,0.434v4.173h-1.521v-2.859c0-0.4-0.02-0.738-0.059-1.016
			c-0.04-0.277-0.143-0.469-0.308-0.573c-0.166-0.105-0.392-0.158-0.677-0.158c-0.272,0-0.637,0.146-1.093,0.438v4.168h-1.511
			v-5.698h1.511v0.797c0.499-0.41,0.877-0.672,1.135-0.785c0.257-0.112,0.523-0.169,0.8-0.169c0.715,0,1.243,0.363,1.584,1.092
			c0.482-0.42,0.876-0.707,1.182-0.861c0.305-0.154,0.604-0.23,0.896-0.23c1.145,0,1.717,0.703,1.717,2.11V115.32z"/>
		<path d="M266.738,112.707h-4.04c0.065,1.142,0.714,1.713,1.943,1.713c0.644,0,1.29-0.233,1.939-0.699h0.054v1.31
			c-0.771,0.295-1.496,0.442-2.175,0.442c-1.069,0-1.885-0.254-2.446-0.763c-0.561-0.509-0.841-1.241-0.841-2.199
			c0-0.952,0.266-1.7,0.797-2.247c0.531-0.546,1.265-0.819,2.2-0.819c1.712,0,2.568,0.911,2.568,2.731V112.707z M265.228,111.851
			c-0.013-0.981-0.412-1.472-1.196-1.472c-0.833,0-1.277,0.49-1.333,1.472H265.228z"/>
		<path d="M269.392,108.908h-1.619v-1.334h1.619V108.908z M269.337,115.32h-1.511v-5.698h1.511V115.32z"/>
		<path d="M276.479,115.32h-1.791l-1.6-2.485l-0.654,0.808v1.678h-1.501v-7.746h1.511v4.813l2.146-2.766h1.737l-2.018,2.46
			L276.479,115.32z"/>
		<path d="M282.01,115.32h-1.501v-0.743c-0.463,0.397-0.838,0.646-1.125,0.746c-0.287,0.1-0.593,0.149-0.917,0.149
			c-0.499,0-0.912-0.161-1.24-0.484s-0.492-0.739-0.492-1.248c0-0.643,0.242-1.13,0.726-1.461s1.505-0.538,3.063-0.62v-0.152
			c0-0.357-0.123-0.617-0.369-0.777c-0.246-0.161-0.653-0.241-1.221-0.241c-0.387,0-0.941,0.147-1.663,0.442h-0.054v-1.195
			c0.761-0.184,1.449-0.276,2.066-0.276c0.961,0,1.656,0.155,2.084,0.466c0.428,0.31,0.643,0.803,0.643,1.479V115.32z
			 M280.509,113.932v-1.437c-0.991,0.082-1.611,0.209-1.86,0.381c-0.25,0.172-0.374,0.411-0.374,0.716
			c0,0.325,0.087,0.552,0.261,0.68s0.446,0.191,0.816,0.191C279.742,114.463,280.128,114.287,280.509,113.932z"/>
		<path d="M288.76,115.32h-1.52v-2.84c0-0.793-0.088-1.286-0.264-1.479c-0.176-0.191-0.46-0.288-0.854-0.288
			c-0.328,0-0.724,0.146-1.187,0.438v4.168h-1.511v-5.698h1.511v0.797c0.473-0.387,0.851-0.643,1.135-0.768
			c0.283-0.125,0.579-0.187,0.888-0.187c1.201,0,1.801,0.703,1.801,2.11V115.32z"/>
	</g>
</g>
<g>
	<g>
		<path fill="#CB1C14" d="M300.021,115.32h-2.008l-2.175-2.81h-1.033v2.81h-1.624v-7.416h2.839c1.03,0,1.772,0.184,2.228,0.549
			c0.454,0.366,0.682,0.862,0.682,1.488c0,0.981-0.494,1.708-1.481,2.181L300.021,115.32z M294.795,109.07v2.309h0.729
			c0.698,0,1.161-0.117,1.387-0.35c0.227-0.232,0.34-0.538,0.34-0.915c0-0.335-0.108-0.593-0.324-0.772
			c-0.217-0.181-0.644-0.271-1.279-0.271H294.795z"/>
	</g>
</g>
<g>
	<g>
		<path d="M303.013,115.497c-0.925,0-1.644-0.267-2.155-0.799c-0.512-0.533-0.768-1.274-0.768-2.223
			c0-0.951,0.258-1.694,0.774-2.229c0.517-0.535,1.233-0.803,2.148-0.803c0.922,0,1.64,0.268,2.153,0.803
			c0.513,0.534,0.77,1.277,0.77,2.229c0,0.948-0.257,1.689-0.77,2.223C304.652,115.23,303.935,115.497,303.013,115.497z
			 M303.013,110.498c-0.896,0-1.344,0.664-1.344,1.992c0,1.303,0.455,1.954,1.363,1.954c0.883,0,1.324-0.651,1.324-1.954
			C304.356,111.162,303.908,110.498,303.013,110.498z"/>
		<path d="M308.523,114.917l-0.098,0.403h-1.418v-7.746h1.511v2.811c0.439-0.371,0.798-0.617,1.075-0.738s0.57-0.182,0.879-0.182
			c0.669,0,1.187,0.257,1.553,0.772c0.365,0.515,0.548,1.238,0.548,2.17c0,0.912-0.232,1.651-0.698,2.22
			c-0.466,0.567-1.047,0.851-1.742,0.851C309.634,115.477,309.098,115.291,308.523,114.917z M308.519,111.034v3.159
			c0.335,0.125,0.642,0.188,0.921,0.188c1.046,0,1.569-0.646,1.569-1.935c0-1.21-0.438-1.815-1.313-1.815
			C309.337,110.63,308.945,110.765,308.519,111.034z"/>
		<path d="M316.207,115.497c-0.925,0-1.644-0.267-2.155-0.799c-0.512-0.533-0.768-1.274-0.768-2.223
			c0-0.951,0.258-1.694,0.774-2.229c0.518-0.535,1.233-0.803,2.148-0.803c0.922,0,1.64,0.268,2.152,0.803
			c0.514,0.534,0.771,1.277,0.771,2.229c0,0.948-0.257,1.689-0.771,2.223C317.847,115.23,317.129,115.497,316.207,115.497z
			 M316.207,110.498c-0.896,0-1.344,0.664-1.344,1.992c0,1.303,0.455,1.954,1.363,1.954c0.883,0,1.324-0.651,1.324-1.954
			C317.551,111.162,317.103,110.498,316.207,110.498z"/>
		<path d="M323.573,115.286c-0.403,0.099-0.835,0.147-1.294,0.147c-0.68,0-1.177-0.146-1.491-0.436
			c-0.315-0.29-0.473-0.76-0.473-1.41v-2.967h-0.748v-0.999h0.753v-1.6h1.506v1.6h1.747v0.999h-1.747v2.347
			c0,0.604,0.077,0.998,0.231,1.182s0.413,0.275,0.777,0.275c0.233,0,0.464-0.058,0.694-0.173h0.044V115.286z"/>
		<path d="M331.725,111.162h-0.05c-0.203-0.053-0.476-0.079-0.816-0.079c-0.535,0-1.027,0.086-1.477,0.256v3.981h-1.511v-5.698
			h1.511v1.033c0.463-0.417,0.843-0.696,1.142-0.839s0.593-0.214,0.881-0.214c0.076,0,0.183,0.003,0.32,0.01V111.162z"/>
		<path d="M337.789,112.707h-4.04c0.065,1.142,0.714,1.713,1.943,1.713c0.644,0,1.29-0.233,1.939-0.699h0.054v1.31
			c-0.771,0.295-1.496,0.442-2.175,0.442c-1.069,0-1.885-0.254-2.446-0.763c-0.561-0.509-0.841-1.241-0.841-2.199
			c0-0.952,0.266-1.7,0.797-2.247c0.531-0.546,1.265-0.819,2.2-0.819c1.712,0,2.568,0.911,2.568,2.731V112.707z M336.278,111.851
			c-0.013-0.981-0.412-1.472-1.196-1.472c-0.833,0-1.277,0.49-1.333,1.472H336.278z"/>
		<path d="M338.519,115.049v-1.397h0.06c0.679,0.548,1.394,0.821,2.146,0.821c0.761,0,1.142-0.206,1.142-0.62
			c0-0.167-0.06-0.294-0.178-0.381s-0.331-0.165-0.64-0.234c-0.213-0.039-0.517-0.103-0.91-0.191s-0.703-0.212-0.928-0.369
			s-0.392-0.348-0.499-0.57c-0.108-0.224-0.163-0.481-0.163-0.773c0-0.554,0.241-1.004,0.724-1.351
			c0.482-0.346,1.13-0.519,1.943-0.519c0.719,0,1.367,0.126,1.944,0.379v1.328h-0.039c-0.66-0.469-1.298-0.703-1.915-0.703
			c-0.318,0-0.584,0.059-0.797,0.177s-0.319,0.266-0.319,0.442c0,0.2,0.066,0.346,0.199,0.436c0.133,0.091,0.354,0.172,0.667,0.244
			c0.396,0.072,0.792,0.159,1.186,0.261s0.703,0.281,0.93,0.539c0.227,0.257,0.34,0.589,0.34,0.996c0,0.581-0.245,1.045-0.735,1.393
			c-0.491,0.348-1.152,0.521-1.986,0.521C339.862,115.477,339.139,115.334,338.519,115.049z"/>
		<path d="M349.562,112.707h-4.04c0.065,1.142,0.713,1.713,1.943,1.713c0.644,0,1.289-0.233,1.939-0.699h0.054v1.31
			c-0.771,0.295-1.496,0.442-2.175,0.442c-1.069,0-1.885-0.254-2.446-0.763c-0.561-0.509-0.841-1.241-0.841-2.199
			c0-0.952,0.266-1.7,0.797-2.247c0.531-0.546,1.265-0.819,2.2-0.819c1.712,0,2.568,0.911,2.568,2.731V112.707z M348.051,111.851
			c-0.014-0.981-0.412-1.472-1.195-1.472c-0.834,0-1.278,0.49-1.334,1.472H348.051z"/>
		<path d="M355.513,115.32h-1.501v-0.743c-0.463,0.397-0.838,0.646-1.125,0.746c-0.287,0.1-0.593,0.149-0.918,0.149
			c-0.498,0-0.912-0.161-1.239-0.484c-0.328-0.323-0.492-0.739-0.492-1.248c0-0.643,0.241-1.13,0.726-1.461s1.505-0.538,3.063-0.62
			v-0.152c0-0.357-0.123-0.617-0.369-0.777c-0.246-0.161-0.653-0.241-1.221-0.241c-0.387,0-0.941,0.147-1.663,0.442h-0.055v-1.195
			c0.762-0.184,1.45-0.276,2.067-0.276c0.961,0,1.655,0.155,2.084,0.466c0.428,0.31,0.643,0.803,0.643,1.479V115.32z
			 M354.012,113.932v-1.437c-0.991,0.082-1.611,0.209-1.86,0.381s-0.374,0.411-0.374,0.716c0,0.325,0.087,0.552,0.261,0.68
			s0.446,0.191,0.817,0.191C353.245,114.463,353.631,114.287,354.012,113.932z"/>
		<path d="M360.771,111.162h-0.05c-0.203-0.053-0.476-0.079-0.816-0.079c-0.535,0-1.027,0.086-1.477,0.256v3.981h-1.511v-5.698
			h1.511v1.033c0.463-0.417,0.843-0.696,1.142-0.839s0.593-0.214,0.881-0.214c0.076,0,0.183,0.003,0.32,0.01V111.162z"/>
		<path d="M366.167,115.04c-0.637,0.288-1.213,0.433-1.728,0.433c-0.997,0-1.775-0.257-2.333-0.772
			c-0.558-0.515-0.836-1.25-0.836-2.204c0-0.962,0.282-1.707,0.847-2.237c0.563-0.529,1.318-0.794,2.264-0.794
			c0.616,0,1.212,0.146,1.786,0.438v1.388h-0.079c-0.558-0.499-1.107-0.748-1.648-0.748c-0.502,0-0.893,0.173-1.171,0.517
			c-0.279,0.345-0.419,0.823-0.419,1.438c0,0.613,0.141,1.083,0.421,1.409c0.28,0.327,0.679,0.49,1.193,0.49
			c0.548,0,1.089-0.25,1.624-0.748h0.079V115.04z"/>
		<path d="M372.551,115.32h-1.521v-2.84c0-0.793-0.087-1.286-0.263-1.479c-0.176-0.191-0.46-0.288-0.854-0.288
			c-0.328,0-0.724,0.146-1.187,0.438v4.168h-1.511v-7.746h1.511v2.845c0.473-0.387,0.851-0.643,1.135-0.768
			c0.283-0.125,0.58-0.187,0.888-0.187c1.201,0,1.802,0.703,1.802,2.11V115.32z"/>
	</g>
</g>
<g>
	<g>
		<path fill="#CB1C14" d="M377.028,114.876v-1.569h0.167c0.367,0.302,0.79,0.541,1.268,0.719c0.477,0.177,0.936,0.266,1.375,0.266
			c0.456,0,0.823-0.082,1.103-0.246c0.278-0.164,0.418-0.392,0.418-0.685c0-0.226-0.066-0.406-0.199-0.541s-0.385-0.246-0.755-0.334
			c-0.267-0.05-0.72-0.146-1.361-0.291c-0.641-0.145-1.13-0.397-1.466-0.76c-0.337-0.363-0.505-0.826-0.505-1.391
			c0-0.672,0.287-1.22,0.861-1.641c0.574-0.422,1.313-0.633,2.215-0.633c0.918,0,1.781,0.168,2.588,0.502v1.501h-0.162
			c-0.689-0.558-1.479-0.837-2.372-0.837c-0.423,0-0.771,0.079-1.046,0.236c-0.273,0.158-0.411,0.373-0.411,0.645
			c0,0.233,0.078,0.419,0.234,0.557c0.155,0.138,0.422,0.251,0.8,0.339c0.377,0.069,0.798,0.16,1.262,0.273s0.811,0.24,1.038,0.382
			c0.229,0.141,0.41,0.294,0.547,0.46c0.136,0.165,0.237,0.351,0.305,0.554s0.101,0.428,0.101,0.674
			c0,0.722-0.294,1.303-0.883,1.742s-1.369,0.659-2.34,0.659C378.863,115.458,377.937,115.264,377.028,114.876z"/>
	</g>
</g>
<g>
	<g>
		<path d="M386.553,115.497c-0.925,0-1.644-0.267-2.155-0.799c-0.512-0.533-0.768-1.274-0.768-2.223
			c0-0.951,0.258-1.694,0.774-2.229c0.518-0.535,1.233-0.803,2.148-0.803c0.922,0,1.64,0.268,2.152,0.803
			c0.514,0.534,0.771,1.277,0.771,2.229c0,0.948-0.257,1.689-0.771,2.223C388.192,115.23,387.475,115.497,386.553,115.497z
			 M386.553,110.498c-0.896,0-1.344,0.664-1.344,1.992c0,1.303,0.455,1.954,1.363,1.954c0.883,0,1.324-0.651,1.324-1.954
			C387.896,111.162,387.448,110.498,386.553,110.498z"/>
		<path d="M395.012,115.04c-0.637,0.288-1.213,0.433-1.728,0.433c-0.997,0-1.775-0.257-2.333-0.772
			c-0.558-0.515-0.836-1.25-0.836-2.204c0-0.962,0.282-1.707,0.846-2.237c0.564-0.529,1.319-0.794,2.264-0.794
			c0.617,0,1.213,0.146,1.787,0.438v1.388h-0.079c-0.558-0.499-1.107-0.748-1.648-0.748c-0.502,0-0.893,0.173-1.171,0.517
			c-0.279,0.345-0.419,0.823-0.419,1.438c0,0.613,0.141,1.083,0.421,1.409c0.28,0.327,0.679,0.49,1.193,0.49
			c0.548,0,1.089-0.25,1.624-0.748h0.079V115.04z"/>
		<path d="M397.626,108.908h-1.619v-1.334h1.619V108.908z M397.571,115.32h-1.511v-5.698h1.511V115.32z"/>
		<path d="M404.3,112.707h-4.04c0.065,1.142,0.713,1.713,1.943,1.713c0.644,0,1.289-0.233,1.939-0.699h0.054v1.31
			c-0.771,0.295-1.496,0.442-2.175,0.442c-1.069,0-1.885-0.254-2.446-0.763c-0.561-0.509-0.841-1.241-0.841-2.199
			c0-0.952,0.266-1.7,0.797-2.247c0.531-0.546,1.265-0.819,2.2-0.819c1.712,0,2.568,0.911,2.568,2.731V112.707z M402.789,111.851
			c-0.014-0.981-0.412-1.472-1.195-1.472c-0.834,0-1.278,0.49-1.334,1.472H402.789z"/>
		<path d="M408.779,115.286c-0.403,0.099-0.835,0.147-1.294,0.147c-0.68,0-1.177-0.146-1.491-0.436
			c-0.315-0.29-0.473-0.76-0.473-1.41v-2.967h-0.748v-0.999h0.753v-1.6h1.506v1.6h1.747v0.999h-1.747v2.347
			c0,0.604,0.077,0.998,0.231,1.182s0.413,0.275,0.777,0.275c0.232,0,0.464-0.058,0.693-0.173h0.045V115.286z"/>
		<path d="M415.039,109.622l-3.124,7.75h-1.595l0.866-2.042l-2.229-5.708h1.639l1.438,4.069l1.451-4.069H415.039z"/>
		<path d="M421.568,115.497c-0.925,0-1.644-0.267-2.155-0.799c-0.512-0.533-0.768-1.274-0.768-2.223
			c0-0.951,0.258-1.694,0.774-2.229c0.518-0.535,1.233-0.803,2.148-0.803c0.922,0,1.64,0.268,2.152,0.803
			c0.514,0.534,0.771,1.277,0.771,2.229c0,0.948-0.257,1.689-0.771,2.223C423.208,115.23,422.49,115.497,421.568,115.497z
			 M421.568,110.498c-0.896,0-1.344,0.664-1.344,1.992c0,1.303,0.455,1.954,1.363,1.954c0.883,0,1.324-0.651,1.324-1.954
			C422.912,111.162,422.464,110.498,421.568,110.498z"/>
		<path d="M428.979,108.662h-0.039c-0.256-0.072-0.499-0.108-0.729-0.108c-0.4,0-0.676,0.07-0.826,0.21
			c-0.151,0.139-0.227,0.391-0.227,0.755v0.104h1.437v0.999h-1.383v4.699h-1.516v-4.699h-0.777v-0.999h0.777v-0.197
			c0-1.27,0.699-1.904,2.097-1.904c0.463,0,0.857,0.028,1.186,0.084V108.662z"/>
	</g>
</g>
<g>
	<g>
		<path fill="#CB1C14" d="M438.6,109.134h-2.436v6.186h-1.624v-6.186h-2.436v-1.23h6.495V109.134z"/>
	</g>
</g>
<g>
	<g>
		<path d="M444.655,112.707h-4.04c0.065,1.142,0.713,1.713,1.943,1.713c0.644,0,1.289-0.233,1.939-0.699h0.054v1.31
			c-0.771,0.295-1.496,0.442-2.175,0.442c-1.069,0-1.885-0.254-2.446-0.763c-0.561-0.509-0.841-1.241-0.841-2.199
			c0-0.952,0.266-1.7,0.797-2.247c0.531-0.546,1.265-0.819,2.2-0.819c1.712,0,2.568,0.911,2.568,2.731V112.707z M443.145,111.851
			c-0.014-0.981-0.412-1.472-1.195-1.472c-0.834,0-1.278,0.49-1.334,1.472H443.145z"/>
		<path d="M450.237,115.04c-0.637,0.288-1.213,0.433-1.728,0.433c-0.997,0-1.775-0.257-2.333-0.772
			c-0.558-0.515-0.836-1.25-0.836-2.204c0-0.962,0.282-1.707,0.847-2.237c0.563-0.529,1.318-0.794,2.264-0.794
			c0.616,0,1.212,0.146,1.786,0.438v1.388h-0.079c-0.558-0.499-1.107-0.748-1.648-0.748c-0.502,0-0.893,0.173-1.171,0.517
			c-0.279,0.345-0.419,0.823-0.419,1.438c0,0.613,0.141,1.083,0.421,1.409c0.28,0.327,0.679,0.49,1.193,0.49
			c0.548,0,1.089-0.25,1.624-0.748h0.079V115.04z"/>
		<path d="M456.621,115.32H455.1v-2.84c0-0.793-0.087-1.286-0.263-1.479c-0.176-0.191-0.46-0.288-0.854-0.288
			c-0.328,0-0.724,0.146-1.187,0.438v4.168h-1.511v-7.746h1.511v2.845c0.473-0.387,0.851-0.643,1.135-0.768
			c0.283-0.125,0.58-0.187,0.888-0.187c1.201,0,1.802,0.703,1.802,2.11V115.32z"/>
		<path d="M463.557,115.32h-1.52v-2.84c0-0.793-0.088-1.286-0.264-1.479c-0.176-0.191-0.46-0.288-0.854-0.288
			c-0.328,0-0.724,0.146-1.187,0.438v4.168h-1.511v-5.698h1.511v0.797c0.473-0.387,0.851-0.643,1.135-0.768
			c0.283-0.125,0.579-0.187,0.888-0.187c1.201,0,1.801,0.703,1.801,2.11V115.32z"/>
		<path d="M467.649,115.497c-0.925,0-1.644-0.267-2.155-0.799c-0.512-0.533-0.768-1.274-0.768-2.223
			c0-0.951,0.258-1.694,0.774-2.229c0.517-0.535,1.233-0.803,2.148-0.803c0.922,0,1.64,0.268,2.153,0.803
			c0.513,0.534,0.77,1.277,0.77,2.229c0,0.948-0.257,1.689-0.77,2.223C469.289,115.23,468.571,115.497,467.649,115.497z
			 M467.649,110.498c-0.896,0-1.344,0.664-1.344,1.992c0,1.303,0.455,1.954,1.363,1.954c0.883,0,1.324-0.651,1.324-1.954
			C468.993,111.162,468.545,110.498,467.649,110.498z"/>
		<path d="M473.155,115.32h-1.511v-7.746h1.511V115.32z"/>
		<path d="M477.241,115.497c-0.925,0-1.644-0.267-2.155-0.799c-0.512-0.533-0.768-1.274-0.768-2.223
			c0-0.951,0.258-1.694,0.774-2.229c0.517-0.535,1.233-0.803,2.148-0.803c0.922,0,1.64,0.268,2.153,0.803
			c0.513,0.534,0.77,1.277,0.77,2.229c0,0.948-0.257,1.689-0.77,2.223C478.881,115.23,478.163,115.497,477.241,115.497z
			 M477.241,110.498c-0.896,0-1.344,0.664-1.344,1.992c0,1.303,0.455,1.954,1.363,1.954c0.883,0,1.324-0.651,1.324-1.954
			C478.585,111.162,478.137,110.498,477.241,110.498z"/>
		<path d="M486.38,114.666c0,0.941-0.236,1.637-0.709,2.086c-0.472,0.45-1.229,0.675-2.269,0.675c-0.672,0-1.338-0.074-1.998-0.222
			v-1.23h0.074c0.653,0.233,1.219,0.35,1.698,0.35c0.587,0,1.016-0.104,1.286-0.311c0.271-0.206,0.406-0.615,0.406-1.225v-0.315
			c-0.587,0.506-1.156,0.758-1.707,0.758c-1.565,0-2.348-0.969-2.348-2.908c0-0.859,0.227-1.551,0.682-2.074
			c0.454-0.522,1.035-0.784,1.744-0.784c0.555,0,1.091,0.174,1.609,0.521l0.104-0.364h1.427V114.666z M484.869,113.647v-2.874
			c-0.331-0.141-0.638-0.212-0.92-0.212c-1.047,0-1.57,0.599-1.57,1.796c0,0.601,0.109,1.035,0.327,1.302
			c0.219,0.268,0.558,0.401,1.017,0.401C484.08,114.06,484.463,113.922,484.869,113.647z"/>
		<path d="M493.275,109.622l-3.125,7.75h-1.595l0.866-2.042l-2.229-5.708h1.639l1.438,4.069l1.451-4.069H493.275z"/>
	</g>
</g>
</svg>
